{
  "accessors": [
    {
      "bufferView": 2,
      "componentType": 5126,
      "count": 42241,
      "max": [
        1.4600085020065308,
        3.2136569023132324,
        1.9962027072906494
      ],
      "min": [
        -1.4600086212158203,
        -4.0497522354125977,
        0.30585706233978271
      ],
      "type": "VEC3"
    },
    {
      "bufferView": 2,
      "byteOffset": 506892,
      "componentType": 5126,
      "count": 42241,
      "max": [
        1,
        1,
        1
      ],
      "min": [
        -1,
        -1,
        -1
      ],
      "type": "VEC3"
    },
    {
      "bufferView": 3,
      "componentType": 5126,
      "count": 42241,
      "max": [
        1,
        1,
        1,
        1
      ],
      "min": [
        -1,
        -1,
        -1,
        -1
      ],
      "type": "VEC4"
    },
    {
      "bufferView": 1,
      "componentType": 5126,
      "count": 42241,
      "max": [
        0.9955446720123291,
        0.99369597434997559
      ],
      "min": [
        0.0049790143966674805,
        0.011177896521985531
      ],
      "type": "VEC2"
    },
    {
      "bufferView": 0,
      "componentType": 5125,
      "count": 237648,
      "max": [
        42240
      ],
      "min": [
        0
      ],
      "type": "SCALAR"
    },
    {
      "bufferView": 2,
      "byteOffset": 1013784,
      "componentType": 5126,
      "count": 1564,
      "max": [
        1.3671779632568359,
        3.1418769359588623,
        1.1792397499084473
      ],
      "min": [
        -1.3671779632568359,
        -3.8730285167694092,
        0.55593538284301758
      ],
      "type": "VEC3"
    },
    {
      "bufferView": 2,
      "byteOffset": 1032552,
      "componentType": 5126,
      "count": 1564,
      "max": [
        1,
        1,
        1
      ],
      "min": [
        -1,
        -1,
        -1
      ],
      "type": "VEC3"
    },
    {
      "bufferView": 3,
      "byteOffset": 675856,
      "componentType": 5126,
      "count": 1564,
      "max": [
        0.99966633319854736,
        0.99971944093704224,
        0.87888574600219727,
        1
      ],
      "min": [
        -0.99966633319854736,
        -0.9999726414680481,
        -0.99686026573181152,
        -1
      ],
      "type": "VEC4"
    },
    {
      "bufferView": 1,
      "byteOffset": 337928,
      "componentType": 5126,
      "count": 1564,
      "max": [
        0.99028313159942627,
        0.97526144981384277
      ],
      "min": [
        0.0070109367370605469,
        0.013348788022994995
      ],
      "type": "VEC2"
    },
    {
      "bufferView": 1,
      "byteOffset": 350440,
      "componentType": 5126,
      "count": 1564,
      "max": [
        0.99028313159942627,
        0.97526144981384277
      ],
      "min": [
        0.0070109367370605469,
        0.013348788022994995
      ],
      "type": "VEC2"
    },
    {
      "bufferView": 0,
      "byteOffset": 950592,
      "componentType": 5125,
      "count": 6504,
      "max": [
        1563
      ],
      "min": [
        0
      ],
      "type": "SCALAR"
    },
    {
      "bufferView": 2,
      "byteOffset": 1051320,
      "componentType": 5126,
      "count": 992,
      "max": [
        1.399003267288208,
        -3.3217940330505371,
        1.206967830657959
      ],
      "min": [
        -1.399003267288208,
        -3.8018932342529297,
        0.78033292293548584
      ],
      "type": "VEC3"
    },
    {
      "bufferView": 2,
      "byteOffset": 1063224,
      "componentType": 5126,
      "count": 992,
      "max": [
        0.99774003028869629,
        0.99817627668380737,
        0.99282413721084595
      ],
      "min": [
        -0.99774003028869629,
        -0.99701333045959473,
        -0.9800381064414978
      ],
      "type": "VEC3"
    },
    {
      "bufferView": 3,
      "byteOffset": 700880,
      "componentType": 5126,
      "count": 992,
      "max": [
        0.99116218090057373,
        0.997295081615448,
        0.97178691625595093,
        1
      ],
      "min": [
        -0.99116218090057373,
        -0.98651969432830811,
        -0.97398668527603149,
        -1
      ],
      "type": "VEC4"
    },
    {
      "bufferView": 1,
      "byteOffset": 362952,
      "componentType": 5126,
      "count": 992,
      "max": [
        0.33628523349761963,
        0.40077394247055054
      ],
      "min": [
        0.32553571462631226,
        0.38983815908432007
      ],
      "type": "VEC2"
    },
    {
      "bufferView": 0,
      "byteOffset": 976608,
      "componentType": 5125,
      "count": 4056,
      "max": [
        991
      ],
      "min": [
        0
      ],
      "type": "SCALAR"
    },
    {
      "bufferView": 2,
      "byteOffset": 1075128,
      "componentType": 5126,
      "count": 1371,
      "max": [
        1.3861571550369263,
        1.3125773668289185,
        1.9013313055038452
      ],
      "min": [
        -1.3861571550369263,
        -3.7917037010192871,
        0.80434221029281616
      ],
      "type": "VEC3"
    },
    {
      "bufferView": 2,
      "byteOffset": 1091580,
      "componentType": 5126,
      "count": 1371,
      "max": [
        0.96315771341323853,
        1,
        1
      ],
      "min": [
        -0.96315771341323853,
        -1,
        -1
      ],
      "type": "VEC3"
    },
    {
      "bufferView": 3,
      "byteOffset": 716752,
      "componentType": 5126,
      "count": 1371,
      "max": [
        0.99820953607559204,
        0.99821484088897705,
        0.73070156574249268,
        1
      ],
      "min": [
        -0.99820935726165771,
        -0.99900400638580322,
        -0.9999963641166687,
        1
      ],
      "type": "VEC4"
    },
    {
      "bufferView": 1,
      "byteOffset": 370888,
      "componentType": 5126,
      "count": 1371,
      "max": [
        1,
        1
      ],
      "min": [
        0,
        0
      ],
      "type": "VEC2"
    },
    {
      "bufferView": 0,
      "byteOffset": 992832,
      "componentType": 5125,
      "count": 5496,
      "max": [
        1370
      ],
      "min": [
        0
      ],
      "type": "SCALAR"
    },
    {
      "bufferView": 2,
      "byteOffset": 1108032,
      "componentType": 5126,
      "count": 4862,
      "max": [
        0.62343490123748779,
        0.62343490123748779,
        0.21619206666946411
      ],
      "min": [
        -0.62343508005142212,
        -0.62343484163284302,
        -2.6321468353271484
      ],
      "type": "VEC3"
    },
    {
      "bufferView": 2,
      "byteOffset": 1166376,
      "componentType": 5126,
      "count": 4862,
      "max": [
        1,
        1,
        1
      ],
      "min": [
        -1,
        -1,
        -1
      ],
      "type": "VEC3"
    },
    {
      "bufferView": 3,
      "byteOffset": 738688,
      "componentType": 5126,
      "count": 4862,
      "max": [
        1,
        1,
        1,
        1
      ],
      "min": [
        -1,
        -0.99996429681777954,
        -1,
        -1
      ],
      "type": "VEC4"
    },
    {
      "bufferView": 1,
      "byteOffset": 381856,
      "componentType": 5126,
      "count": 4862,
      "max": [
        0.98736000061035156,
        0.90828394889831543
      ],
      "min": [
        0.017379015684127808,
        0.043213874101638794
      ],
      "type": "VEC2"
    },
    {
      "bufferView": 1,
      "byteOffset": 420752,
      "componentType": 5126,
      "count": 4862,
      "max": [
        0.98736000061035156,
        0.90828394889831543
      ],
      "min": [
        0.017379015684127808,
        0.043213874101638794
      ],
      "type": "VEC2"
    },
    {
      "bufferView": 0,
      "byteOffset": 1014816,
      "componentType": 5125,
      "count": 15552,
      "max": [
        4861
      ],
      "min": [
        0
      ],
      "type": "SCALAR"
    },
    {
      "bufferView": 2,
      "byteOffset": 1224720,
      "componentType": 5126,
      "count": 3122,
      "max": [
        1.4611363410949707,
        3.0599257946014404,
        1.6038055419921875
      ],
      "min": [
        -1.459803581237793,
        -3.9486374855041504,
        -0.089576929807662964
      ],
      "type": "VEC3"
    },
    {
      "bufferView": 2,
      "byteOffset": 1262184,
      "componentType": 5126,
      "count": 3122,
      "max": [
        1,
        1,
        1
      ],
      "min": [
        -1,
        -1,
        -1
      ],
      "type": "VEC3"
    },
    {
      "bufferView": 3,
      "byteOffset": 816480,
      "componentType": 5126,
      "count": 3122,
      "max": [
        1,
        1,
        1,
        1
      ],
      "min": [
        -1,
        -1,
        -1,
        1
      ],
      "type": "VEC4"
    },
    {
      "bufferView": 1,
      "byteOffset": 459648,
      "componentType": 5126,
      "count": 3122,
      "max": [
        0.99933689832687378,
        0.98189187049865723
      ],
      "min": [
        0.00066313979914411902,
        0.00066313979914411902
      ],
      "type": "VEC2"
    },
    {
      "bufferView": 0,
      "byteOffset": 1077024,
      "componentType": 5125,
      "count": 8730,
      "max": [
        3121
      ],
      "min": [
        0
      ],
      "type": "SCALAR"
    },
    {
      "bufferView": 2,
      "byteOffset": 1299648,
      "componentType": 5126,
      "count": 4862,
      "max": [
        0.61216920614242554,
        0.61216920614242554,
        0.1773792952299118
      ],
      "min": [
        -0.61216938495635986,
        -0.61216914653778076,
        -2.6290571689605713
      ],
      "type": "VEC3"
    },
    {
      "bufferView": 2,
      "byteOffset": 1357992,
      "componentType": 5126,
      "count": 4862,
      "max": [
        1,
        1,
        1
      ],
      "min": [
        -1,
        -1,
        -1
      ],
      "type": "VEC3"
    },
    {
      "bufferView": 3,
      "byteOffset": 866432,
      "componentType": 5126,
      "count": 4862,
      "max": [
        1,
        1,
        1,
        1
      ],
      "min": [
        -1,
        -0.99999320507049561,
        -1,
        -1
      ],
      "type": "VEC4"
    },
    {
      "bufferView": 1,
      "byteOffset": 484624,
      "componentType": 5126,
      "count": 4862,
      "max": [
        0.98736000061035156,
        0.90828394889831543
      ],
      "min": [
        0.017379015684127808,
        0.043213874101638794
      ],
      "type": "VEC2"
    },
    {
      "bufferView": 1,
      "byteOffset": 523520,
      "componentType": 5126,
      "count": 4862,
      "max": [
        0.98736000061035156,
        0.90828394889831543
      ],
      "min": [
        0.017379015684127808,
        0.043213874101638794
      ],
      "type": "VEC2"
    },
    {
      "bufferView": 0,
      "byteOffset": 1111944,
      "componentType": 5125,
      "count": 15552,
      "max": [
        4861
      ],
      "min": [
        0
      ],
      "type": "SCALAR"
    }
  ],
  "asset": {
    "extras": {
      "author": "dagtholander (https://sketchfab.com/dagtholander)",
      "license": "CC-BY-4.0 (http://creativecommons.org/licenses/by/4.0/)",
      "source": "https://sketchfab.com/3d-models/1964-ferrari-250-gto-849c88c65911496d92363dc2980f6f4e",
      "title": "1964 Ferrari 250 GTO"
    },
    "generator": "Sketchfab-4.33.0",
    "version": "2.0"
  },
  "bufferViews": [
    {
      "buffer": 0,
      "byteLength": 1174152,
      "byteOffset": 0,
      "name": "floatBufferViews",
      "target": 34963
    },
    {
      "buffer": 0,
      "byteLength": 562416,
      "byteOffset": 1174152,
      "byteStride": 8,
      "name": "floatBufferViews",
      "target": 34962
    },
    {
      "buffer": 0,
      "byteLength": 1416336,
      "byteOffset": 1736568,
      "byteStride": 12,
      "name": "floatBufferViews",
      "target": 34962
    },
    {
      "buffer": 0,
      "byteLength": 944224,
      "byteOffset": 3152904,
      "byteStride": 16,
      "name": "floatBufferViews",
      "target": 34962
    }
  ],
  "buffers": [
    {
      "byteLength": 4097128,
      "uri": "scene.bin"
    }
  ],
  "images": [
    {
      "uri": "textures/wheel_baseColor.png"
    },
    {
      "uri": "textures/wheel_normal.png"
    },
    {
      "uri": "textures/wheel_metallicRoughness.png"
    },
    {
      "uri": "textures/body_baseColor.png"
    },
    {
      "uri": "textures/body_normal.png"
    },
    {
      "uri": "textures/body_metallicRoughness.png"
    },
    {
      "uri": "textures/lights_baseColor.png"
    },
    {
      "uri": "textures/lights_normal.png"
    },
    {
      "uri": "textures/lights_metallicRoughness.png"
    },
    {
      "uri": "textures/misc_baseColor.png"
    },
    {
      "uri": "textures/misc_normal.png"
    },
    {
      "uri": "textures/misc_metallicRoughness.png"
    }
  ],
  "materials": [
    {
      "doubleSided": true,
      "emissiveFactor": [
        0,
        0,
        0
      ],
      "name": "body",
      "normalTexture": {
        "index": 4,
        "scale": 1,
        "texCoord": 0
      },
      "pbrMetallicRoughness": {
        "baseColorFactor": [
          1,
          1,
          1,
          1
        ],
        "baseColorTexture": {
          "index": 3,
          "texCoord": 0
        },
        "metallicFactor": 1,
        "metallicRoughnessTexture": {
          "index": 5,
          "texCoord": 0
        },
        "roughnessFactor": 1
      }
    },
    {
      "doubleSided": true,
      "name": "lights",
      "normalTexture": {
        "index": 7,
        "scale": 1,
        "texCoord": 0
      },
      "pbrMetallicRoughness": {
        "baseColorFactor": [
          1,
          1,
          1,
          1
        ],
        "baseColorTexture": {
          "index": 6,
          "texCoord": 0
        },
        "metallicFactor": 1,
        "metallicRoughnessTexture": {
          "index": 8,
          "texCoord": 0
        },
        "roughnessFactor": 1
      }
    },
    {
      "alphaMode": "BLEND",
      "doubleSided": true,
      "emissiveFactor": [
        0,
        0,
        0
      ],
      "name": "glass",
      "pbrMetallicRoughness": {
        "baseColorFactor": [
          0.80000000000000004,
          0.80000000000000004,
          0.80000000000000004,
          0.030487804899999998
        ],
        "metallicFactor": 0,
        "roughnessFactor": 0.097560975600000002
      }
    },
    {
      "doubleSided": true,
      "emissiveFactor": [
        0,
        0,
        0
      ],
      "name": "wheel",
      "normalTexture": {
        "index": 1,
        "scale": 1,
        "texCoord": 0
      },
      "pbrMetallicRoughness": {
        "baseColorFactor": [
          1,
          1,
          1,
          1
        ],
        "baseColorTexture": {
          "index": 0,
          "texCoord": 0
        },
        "metallicFactor": 1,
        "metallicRoughnessTexture": {
          "index": 2,
          "texCoord": 0
        },
        "roughnessFactor": 1
      }
    },
    {
      "doubleSided": true,
      "emissiveFactor": [
        0,
        0,
        0
      ],
      "name": "misc",
      "normalTexture": {
        "index": 10,
        "scale": 1,
        "texCoord": 0
      },
      "pbrMetallicRoughness": {
        "baseColorFactor": [
          1,
          1,
          1,
          1
        ],
        "baseColorTexture": {
          "index": 9,
          "texCoord": 0
        },
        "metallicFactor": 1,
        "metallicRoughnessTexture": {
          "index": 11,
          "texCoord": 0
        },
        "roughnessFactor": 1
      }
    }
  ],
  "meshes": [
    {
      "name": "Cube.000_body_0",
      "primitives": [
        {
          "attributes": {
            "NORMAL": 1,
            "POSITION": 0,
            "TANGENT": 2,
            "TEXCOORD_0": 3
          },
          "indices": 4,
          "material": 0,
          "mode": 4
        }
      ]
    },
    {
      "name": "Cube.003_lights_0",
      "primitives": [
        {
          "attributes": {
            "NORMAL": 6,
            "POSITION": 5,
            "TANGENT": 7,
            "TEXCOORD_0": 8,
            "TEXCOORD_1": 9
          },
          "indices": 10,
          "material": 1,
          "mode": 4
        }
      ]
    },
    {
      "name": "Cube.001_body_0",
      "primitives": [
        {
          "attributes": {
            "NORMAL": 12,
            "POSITION": 11,
            "TANGENT": 13,
            "TEXCOORD_0": 14
          },
          "indices": 15,
          "material": 0,
          "mode": 4
        }
      ]
    },
    {
      "name": "Cube.001_glass_0",
      "primitives": [
        {
          "attributes": {
            "NORMAL": 17,
            "POSITION": 16,
            "TANGENT": 18,
            "TEXCOORD_0": 19
          },
          "indices": 20,
          "material": 2,
          "mode": 4
        }
      ]
    },
    {
      "name": "Cylinder.001_wheel_0",
      "primitives": [
        {
          "attributes": {
            "NORMAL": 22,
            "POSITION": 21,
            "TANGENT": 23,
            "TEXCOORD_0": 24,
            "TEXCOORD_1": 25
          },
          "indices": 26,
          "material": 3,
          "mode": 4
        }
      ]
    },
    {
      "name": "Plane_misc_0",
      "primitives": [
        {
          "attributes": {
            "NORMAL": 28,
            "POSITION": 27,
            "TANGENT": 29,
            "TEXCOORD_0": 30
          },
          "indices": 31,
          "material": 4,
          "mode": 4
        }
      ]
    },
    {
      "name": "Cylinder_wheel_0",
      "primitives": [
        {
          "attributes": {
            "NORMAL": 33,
            "POSITION": 32,
            "TANGENT": 34,
            "TEXCOORD_0": 35,
            "TEXCOORD_1": 36
          },
          "indices": 37,
          "material": 3,
          "mode": 4
        }
      ]
    }
  ],
  "nodes": [
    {
      "children": [
        1
      ],
      "name": "RootNode (gltf orientation matrix)",
      "rotation": [
        -0.70710678118654746,
        -0,
        -0,
        0.70710678118654757
      ]
    },
    {
      "children": [
        2
      ],
      "name": "RootNode (model correction matrix)"
    },
    {
      "children": [
        3
      ],
      "matrix": [
        1,
        0,
        0,
        0,
        0,
        0,
        1,
        0,
        0,
        -1,
        0,
        0,
        0,
        0,
        0,
        1
      ],
      "name": "d1443106ff0f4edcb682c22f1d08a802.fbx"
    },
    {
      "children": [
        4,
        6,
        8,
        11,
        13,
        15
      ],
      "name": "RootNode"
    },
    {
      "children": [
        5
      ],
      "matrix": [
        1,
        0,
        0,
        0,
        0,
        -1.6292067939183141e-07,
        -0.99999999999998679,
        0,
        0,
        0.99999999999998679,
        -1.6292067939183141e-07,
        0,
        0,
        0,
        0,
        1
      ],
      "name": "Cube.000"
    },
    {
      "mesh": 0,
      "name": "Cube.000_body_0"
    },
    {
      "children": [
        7
      ],
      "matrix": [
        1,
        0,
        0,
        0,
        0,
        -1.6292067939183141e-07,
        -0.99999999999998679,
        0,
        0,
        0.99999999999998679,
        -1.6292067939183141e-07,
        0,
        0,
        0,
        0,
        1
      ],
      "name": "Cube.003"
    },
    {
      "mesh": 1,
      "name": "Cube.003_lights_0"
    },
    {
      "children": [
        9,
        10
      ],
      "matrix": [
        1,
        0,
        0,
        0,
        0,
        -1.6292067939183141e-07,
        -0.99999999999998679,
        0,
        0,
        0.99999999999998679,
        -1.6292067939183141e-07,
        0,
        0,
        0,
        0,
        1
      ],
      "name": "Cube.001"
    },
    {
      "mesh": 2,
      "name": "Cube.001_body_0"
    },
    {
      "mesh": 3,
      "name": "Cube.001_glass_0"
    },
    {
      "children": [
        12
      ],
      "matrix": [
        7.5497899487686482e-08,
        -0.99999999999999734,
        0,
        0,
        7.5497899543197633e-08,
        5.5511151231257827e-15,
        -0.99999999999999734,
        0,
        0.99999999999999445,
        7.5497899543197633e-08,
        7.5497899487686482e-08,
        0,
        1.207977294921875,
        0.61086642742156982,
        -1.6539022922515869,
        1
      ],
      "name": "Cylinder.001"
    },
    {
      "mesh": 4,
      "name": "Cylinder.001_wheel_0"
    },
    {
      "children": [
        14
      ],
      "matrix": [
        1,
        0,
        0,
        0,
        0,
        -1.6292067939183141e-07,
        -0.99999999999998679,
        0,
        0,
        0.99999999999998679,
        -1.6292067939183141e-07,
        0,
        0,
        0.31490534543991089,
        0,
        1
      ],
      "name": "Plane"
    },
    {
      "mesh": 5,
      "name": "Plane_misc_0"
    },
    {
      "children": [
        16
      ],
      "matrix": [
        7.5497899487686482e-08,
        -0.99999999999999734,
        0,
        0,
        7.5497899543197633e-08,
        5.5511151231257827e-15,
        -0.99999999999999734,
        0,
        0.99999999999999445,
        7.5497899543197633e-08,
        7.5497899487686482e-08,
        0,
        1.2258388996124268,
        0.58554351329803467,
        2.504432201385498,
        1
      ],
      "name": "Cylinder"
    },
    {
      "mesh": 6,
      "name": "Cylinder_wheel_0"
    }
  ],
  "samplers": [
    {
      "magFilter": 9729,
      "minFilter": 9987,
      "wrapS": 10497,
      "wrapT": 10497
    }
  ],
  "scene": 0,
  "scenes": [
    {
      "name": "OSG_Scene",
      "nodes": [
        0
      ]
    }
  ],
  "textures": [
    {
      "sampler": 0,
      "source": 0
    },
    {
      "sampler": 0,
      "source": 1
    },
    {
      "sampler": 0,
      "source": 2
    },
    {
      "sampler": 0,
      "source": 3
    },
    {
      "sampler": 0,
      "source": 4
    },
    {
      "sampler": 0,
      "source": 5
    },
    {
      "sampler": 0,
      "source": 6
    },
    {
      "sampler": 0,
      "source": 7
    },
    {
      "sampler": 0,
      "source": 8
    },
    {
      "sampler": 0,
      "source": 9
    },
    {
      "sampler": 0,
      "source": 10
    },
    {
      "sampler": 0,
      "source": 11
    }
  ]
}

